<svg xmlns="http://www.w3.org/2000/svg">
  <defs>
    <symbol id="squiggly-arrow" xmlns="http://www.w3.org/2000/svg" viewBox="0 0 812.3 583.61">
      <path
        d="m406.15 558.61-38.11-38.11h76.23l-38.11 38.11v-76.23h0c0-42.1 34.13-76.23 76.23-76.23h228.69c42.1 0 76.23-34.13 76.23-76.23h0V215.58c0-21.05-17.06-38.11-38.11-38.11h0c-21.05 0-38.11 17.06-38.11 38.11v76.23c0 21.05-17.06 38.11-38.11 38.11h0c-21.05 0-38.11-17.06-38.11-38.11v-76.23c0-21.05-17.06-38.11-38.11-38.11h0c-21.05 0-38.11 17.06-38.11 38.11v76.23c0 21.05-17.06 38.11-38.11 38.11h0c-21.05 0-38.11-17.06-38.11-38.11v-76.23c0-21.05-17.06-38.11-38.11-38.11h0c-21.05 0-38.11 17.06-38.11 38.11v76.23c0 21.05-17.06 38.11-38.11 38.11h0c-21.05 0-38.11-17.06-38.11-38.11v-76.23c0-21.05-17.06-38.11-38.11-38.11h0c-21.05 0-38.11 17.06-38.11 38.11v76.23c0 21.05-17.06 38.11-38.11 38.11h0c-21.05 0-38.11-17.06-38.11-38.11v-76.23c0-21.05-17.06-38.11-38.11-38.11h0c-21.05 0-38.11 17.06-38.11 38.11v76.23c0 21.05-17.06 38.11-38.11 38.11h0c-21.05 0-38.11-17.06-38.11-38.11V177.47s0 0 0 0c0-42.1 34.13-76.23 76.23-76.23h647.95c21.05 0 38.11-17.06 38.11-38.11h0c0-21.05-17.06-38.11-38.11-38.11H25" 
        style="fill:none;stroke:#eee;stroke-linecap:round;stroke-linejoin:round;stroke-width:50px"/>
    </symbol>
  </defs>
</svg>